<?xml version="1.0" encoding="UTF-8"?>
<svg id="Layer_1" data-name="Layer 1" xmlns="http://www.w3.org/2000/svg" viewBox="0 0 625.02 600">
    <defs>
        <style>
            .cls-1 {
            fill: #00ace0;
            }

            .cls-2 {
            fill: #1383c6;
            }

            .cls-3 {
            fill: #fbb03c;
            }
        </style>
    </defs>
    <path class="cls-1"
          d="M432.23,190.9c-10.42,9.95-25.33,26.21-38.3,49.12-9.66,17.07-12.59,37.18-30.37,73.18-1.41,2.85-2.29,4.64-3.66,7.24-16.02,30.57-33.61,49.85-38.61,55.19-5.96,6.36-18.57,19.14-37.23,32.05-23.39,16.2-45.7,25.33-60.28,30.24-21.1,7.12-84.54,28.49-151.8,0-26.21-11.09-44.89-26.34-56.65-37.77,37.5,7.06,101.54,12.23,150.33-22.71,18.82-13.51,37.9-34.74,46.7-44.49,29.03-32.39,28.69-42.2,52.89-70.02,19.42-22.31,42.34-48.72,79.5-63.5,15.46-6.12,45.63-15.19,87.49-8.53Z"/>
    <path class="cls-2"
          d="M609.7,149.97c-10.42,10.01-25.33,26.21-38.3,49.19-15.72,27.89-15.66,42.94-30.37,73.18-4.91,10.15-18.82,37.09-42.27,62.36-34.74,37.5-75.2,54.83-97.51,62.36-17.4,5.91-63.71,21.44-117.2,10.62,11.19-7.76,24.21-18.21,37.23-32.05,18.73-19.91,30.86-39.82,38.61-55.19,7.74-6.33,18.42-15.76,29.93-28.41,6.73-7.39,11.93-13.66,18.05-21.92,12.56-16.96,17.13-27.67,34.83-48.03,19.42-22.31,42.34-48.72,79.5-63.5,15.46-6.12,45.63-15.19,87.49-8.6Z"/>
    <path class="cls-3"
          d="M190.91,355.58c15.85,4.62,41.25,9.78,72.06,6.29,49.21-5.58,82.87-29.89,96.93-41.43-8.27,16.2-16.84,28.7-23.66,37.6-9.45,12.32-17.59,20.42-19.55,22.34-5.33,5.25-9.96,9.2-13.69,12.37-7.46,6.35-14.03,11.35-18.95,14.93-6.33-1.52-14.57-3.86-23.94-7.49,0,0-6-2.33-12.01-5.15-12.28-5.76-33.01-19.27-57.19-39.46Z"/>
</svg>