<?xml version="1.0" encoding="UTF-8"?>
<svg id="Layer_1" data-name="Layer 1" xmlns="http://www.w3.org/2000/svg" viewBox="0 0 542.6 306.02">
    <defs>
        <style>
            .cls-1 {
            fill: #fff;
            font-family: BaskOldFace, 'Baskerville Old Face';
            font-size: 151.7px;
            }

            .cls-2 {
            fill: #00ace0;
            }

            .cls-3 {
            fill: #1383c6;
            }

            .cls-4 {
            fill: #fbb03c;
            }
        </style>
    </defs>
    <g>
        <path class="cls-2"
              d="M459.13,20.33c-4.9,4.68-11.91,12.33-18.01,23.1-4.54,8.03-5.92,17.49-14.29,34.42-.66,1.34-1.08,2.18-1.72,3.41-7.54,14.38-15.81,23.45-18.16,25.95-2.8,2.99-8.74,9-17.51,15.08-11,7.62-21.49,11.91-28.35,14.22-9.92,3.35-39.76,13.4-71.39,0-12.33-5.21-21.11-12.39-26.64-17.76,17.64,3.32,47.75,5.75,70.7-10.68,8.85-6.35,17.83-16.34,21.97-20.92,13.65-15.23,13.5-19.85,24.87-32.93,9.13-10.49,19.91-22.91,37.39-29.87,7.27-2.88,21.46-7.14,41.15-4.01Z"/>
        <path class="cls-3"
              d="M542.6,1.08c-4.9,4.71-11.91,12.33-18.01,23.13-7.4,13.12-7.36,20.2-14.29,34.42-2.31,4.77-8.85,17.45-19.88,29.33-16.34,17.64-35.37,25.79-45.86,29.33-8.19,2.78-29.96,10.08-55.12,4.99,5.26-3.65,11.39-8.57,17.51-15.08,8.81-9.36,14.51-18.73,18.16-25.95,3.64-2.98,8.66-7.41,14.08-13.36,3.16-3.48,5.61-6.42,8.49-10.31,5.91-7.97,8.05-13.01,16.38-22.59,9.13-10.49,19.91-22.91,37.39-29.87,7.27-2.88,21.46-7.14,41.15-4.05Z"/>
        <path class="cls-4"
              d="M345.63,97.78c7.45,2.17,19.4,4.6,33.89,2.96,23.14-2.62,38.97-14.06,45.59-19.48-3.89,7.62-7.92,13.5-11.13,17.68-4.44,5.8-8.27,9.6-9.19,10.51-2.51,2.47-4.69,4.33-6.44,5.82-3.51,2.99-6.6,5.34-8.91,7.02-2.98-.72-6.85-1.81-11.26-3.52,0,0-2.82-1.09-5.65-2.42-5.78-2.71-15.52-9.06-26.9-18.56Z"/>
    </g>
    <text class="cls-1" transform="translate(0 266.09)">
        <tspan x="0" y="0">SIHM-K</tspan>
    </text>
</svg>